<?xml version="1.0" encoding="UTF-8" standalone="no"?>
<svg
   id="edb7b3ce-ffc5-4f38-a04c-c85073a1ede6"
   data-name="Calque 1"
   viewBox="0 0 225.05 101"
   version="1.1"
   sodipodi:docname="logo.svg"
   inkscape:version="1.3.2 (091e20e, 2023-11-25, custom)"
   inkscape:export-filename="logo.svg"
   inkscape:export-xdpi="96"
   inkscape:export-ydpi="96"
   xmlns:inkscape="http://www.inkscape.org/namespaces/inkscape"
   xmlns:sodipodi="http://sodipodi.sourceforge.net/DTD/sodipodi-0.dtd"
   xmlns="http://www.w3.org/2000/svg"
   xmlns:svg="http://www.w3.org/2000/svg">
  <defs
     id="defs13" />
  <sodipodi:namedview
     id="namedview13"
     pagecolor="#ffffff"
     bordercolor="#000000"
     borderopacity="0.25"
     inkscape:showpageshadow="2"
     inkscape:pageopacity="0.0"
     inkscape:pagecheckerboard="0"
     inkscape:deskcolor="#d1d1d1"
     inkscape:zoom="4.5527559"
     inkscape:cx="108.17624"
     inkscape:cy="47.004497"
     inkscape:window-width="2560"
     inkscape:window-height="1369"
     inkscape:window-x="-8"
     inkscape:window-y="-8"
     inkscape:window-maximized="1"
     inkscape:current-layer="edb7b3ce-ffc5-4f38-a04c-c85073a1ede6" />
  <title
     id="title1">examshell</title>
  <line
     x1="128"
     y1="101"
     x2="128"
     y2="77"
     style="fill:none;stroke:#f7931e;stroke-miterlimit:10;stroke-width:2px"
     id="line9" />
  <line
     x1="128"
     y1="24"
     x2="128"
     style="fill:none;stroke:#f7931e;stroke-miterlimit:10;stroke-width:2px"
     id="line10" />
  <line
     x1="128"
     y1="1"
     x2="1"
     y2="1"
     style="fill:none;stroke:#f7931e;stroke-miterlimit:10;stroke-width:2px"
     id="line11" />
  <line
     x1="128"
     y1="100"
     x2="1"
     y2="100"
     style="fill:none;stroke:#f7931e;stroke-miterlimit:10;stroke-width:2px"
     id="line12" />
  <line
     x1="1"
     x2="1"
     y2="101"
     style="fill:none;stroke:#f7931e;stroke-miterlimit:10;stroke-width:2px"
     id="line13" />
  <path
     d="m 33.695778,49.167816 c 2.016,0 3.6,-1.584 3.6,-3.6 0,-1.968 -1.584,-3.6 -3.6,-3.6 -1.968,0 -3.6,1.632 -3.6,3.6 0,2.016 1.632,3.6 3.6,3.6 z m 4.272,12.144 c -6.288,0.912 -12.144,-3.408 -13.056,-9.744 -0.528,-3.6 0.672,-7.056 3.024,-9.504 -6.192,1.008 -10.464,6.768 -9.552,13.008 0.912,6.288 6.768,10.656 13.056,9.744 2.688,-0.384 5.04,-1.68 6.768,-3.504 -0.096,0 -0.144,0 -0.24,0 z m 14.399992,-19.344 c -5.52,0 -11.712,4.512 -11.712,11.52 0,6.96 6.192,11.472 11.712,11.472 -1.872,-0.912 -3.696,-5.712 -3.696,-11.472 0,-5.76 1.488,-10.56 3.696,-11.52 z m 1.104,0 c 2.16,0.96 3.696,5.76 3.696,11.52 0,5.76 -1.824,10.56 -3.696,11.472 5.472,0 11.712,-4.512 11.712,-11.472 0,-7.008 -6.24,-11.52 -11.712,-11.52 z m 37.152018,-5.952 h -7.104 v 23.712 c 0,2.88 2.352,5.232 5.28,5.232 1.152,0 2.304,-0.384 3.264,-1.104 l 3.408,-2.688 h -4.848 z m -15.024,13.584 c 1.2,-3.408 3.888,-5.904 7.056,-7.008 -5.904,-1.968 -12.336,1.152 -14.448,7.056 -2.112,5.952 1.008,12.528 7.008,14.64 2.544,0.864 5.184,0.816 7.536,0 -0.048,0 -0.144,-0.048 -0.192,-0.048 -5.952,-2.112 -9.072,-8.688 -6.96,-14.64 z m 28.272032,1.968 c -0.528,-3.648 0.672,-7.104 3.024,-9.6 -6.24,1.008 -10.512005,6.864 -9.600005,13.104 0.912,6.336 6.816005,10.704 13.104005,9.792 2.736,-0.384 5.088,-1.68 6.816,-3.552 -0.096,0 -0.144,0.048 -0.24,0.048 -6.336,0.912 -12.192,-3.456 -13.104,-9.792 z m 7.824,-1.824 -5.376,4.224 h 10.704 c 2.976,-7.728 -3.072,-12 -8.16,-12 3.744,3.6 2.832,7.776 2.832,7.776 z m 24.288,4.512 c -0.144,-0.192 -10.032,-8.448 -10.08,-8.496 -0.432,-0.384 -0.72,-0.96 -0.72,-1.584 0,-1.248 1.008,-2.208 2.208,-2.208 -1.584,0 -3.024,0.576 -4.128,1.584 -1.296,1.104 -2.064,2.784 -2.064,4.608 0,1.776 0.72,3.408 1.92,4.512 0.192,0.192 10.032,8.448 10.08,8.496 0.48,0.384 0.72,0.96 0.72,1.632 0,1.2 -0.96,2.16 -2.16,2.16 1.584,0 3.024,-0.576 4.128,-1.584 1.248,-1.104 2.064,-2.784 2.064,-4.608 0,-1.776 -0.768,-3.408 -1.968,-4.512 z m 0.816,-12.288 h -8.208 l 8.208,6.864 z m -12,15.888 c -1.968,0 -3.552,1.584 -3.552,3.552 0,1.968 1.584,3.552 3.552,3.552 1.968,0 3.552,-1.584 3.552,-3.552 0,-1.968 -1.584,-3.552 -3.552,-3.552 z m 24.336,7.104 v -28.848 h -7.056 v 28.848 z m 8.112,-22.992 c -1.152,0 -2.304,0.384 -3.216,1.152 l -3.6,2.784 h 4.992 v 19.056 h 7.104 v -17.712 c 0,-2.928 -2.352,-5.28 -5.28,-5.28 z m 16.08002,9.6 c -0.528,-3.648 0.672,-7.104 3.024,-9.6 -6.24,1.008 -10.512,6.864 -9.6,13.104 0.912,6.336 6.816,10.704 13.104,9.792 2.736,-0.384 5.088,-1.68 6.816,-3.552 -0.096,0 -0.144,0.048 -0.24,0.048 -6.336,0.912 -12.192,-3.456 -13.104,-9.792 z m 7.824,-1.824 -5.376,4.224 h 10.704 c 2.976,-7.728 -3.072,-12 -8.16,-12 3.744,3.6 2.832,7.776 2.832,7.776 z m 17.28,11.424 v -25.056 h -7.056 v 23.616 c 0,2.88 2.352,5.232 5.232,5.232 1.2,0 2.352,-0.384 3.264,-1.104 l 3.456,-2.688 z m 14.39996,0 v -25.056 h -7.056 v 23.616 c 0,2.88 2.352,5.232 5.232,5.232 1.2,0 2.352,-0.384 3.264,-1.104 l 3.456,-2.688 z"
     id="text13"
     style="-inkscape-font-specification:Stanley;fill:#d03039;stroke-width:0"
     aria-label="codeshell" />
</svg>
