<svg id="edb7b3ce-ffc5-4f38-a04c-c85073a1ede6" data-name="Calque 1" xmlns="http://www.w3.org/2000/svg" viewBox="0 0 225.05 101"><title>examshell</title><path d="M50.2,141.61c.26-.44.55-.66.88-.66a2.27,2.27,0,0,1,1,.25,1.37,1.37,0,0,1,.69.77,1,1,0,0,1-.08,1q-2.8,4.51-8.91,4.51a9.69,9.69,0,0,1-7.62-3.1,11.34,11.34,0,0,1-2.78-7.84,10.78,10.78,0,0,1,2.86-7.73,9.94,9.94,0,0,1,7.54-3c3.12,0,5.43.94,7,2.81A11.5,11.5,0,0,1,53,136.06c0,.84-.48,1.26-1.43,1.26l-15.24.06a8.32,8.32,0,0,0,2.23,5.47,6.91,6.91,0,0,0,5.2,2.06A7.16,7.16,0,0,0,50.2,141.61Zm-1.84-11.55a5.73,5.73,0,0,0-4.51-1.76,7.08,7.08,0,0,0-4.92,1.79,7.9,7.9,0,0,0-2.48,4.7H50.09A7.49,7.49,0,0,0,48.36,130.06Z" transform="translate(-16 -76)" style="fill:#d03039"/><path d="M58.65,146.89a1.61,1.61,0,0,1-1.1-.46,1.38,1.38,0,0,1-.53-1.05,1.13,1.13,0,0,1,.28-.85l7.86-8.36-7.53-8a1,1,0,0,1-.28-1,1.74,1.74,0,0,1,.58-1,1.53,1.53,0,0,1,1-.42,1.3,1.3,0,0,1,1,.39l7.15,8,7-8a1.29,1.29,0,0,1,1-.39,1.54,1.54,0,0,1,1,.42,1.67,1.67,0,0,1,.57,1,1,1,0,0,1-.27,1l-7.54,8,7.87,8.36a1.17,1.17,0,0,1,.27.85,1.37,1.37,0,0,1-.52,1.05,1.62,1.62,0,0,1-1.1.46,1.28,1.28,0,0,1-1-.38l-7.37-8.31-7.48,8.31A1.3,1.3,0,0,1,58.65,146.89Z" transform="translate(-16 -76)" style="fill:#d03039"/><path d="M100.47,144.31h2.15a1.22,1.22,0,0,1,.91.38,1.37,1.37,0,0,1,.35.94,1.26,1.26,0,0,1-.35.91,1.24,1.24,0,0,1-.91.35H100.2a4.66,4.66,0,0,1-3-.88,3,3,0,0,1-1.08-2.47,3.49,3.49,0,0,1,.06-.61,9.47,9.47,0,0,1-8.47,4.51,6.67,6.67,0,0,1-4.81-1.65,6,6,0,0,1-1.74-4.59,5.38,5.38,0,0,1,2.34-4.62,9.73,9.73,0,0,1,5.83-1.68,20.4,20.4,0,0,1,6.79,1.16v-3.8c0-1.76-.64-2.89-1.92-3.41a12.38,12.38,0,0,0-4.1-.55,12.94,12.94,0,0,0-4.81.88v3.47a1.13,1.13,0,0,1-.44.91,1.66,1.66,0,0,1-1,.35,1.63,1.63,0,0,1-1-.35,1.1,1.1,0,0,1-.44-.91v-4.18a1.21,1.21,0,0,1,.71-1.1,14,14,0,0,1,7.15-1.6q4.45,0,6.66,1.46c1.46,1,2.2,2.65,2.2,5v11C99,144,99.48,144.31,100.47,144.31Zm-4.4-5.94a24.15,24.15,0,0,0-6.18-1,7.91,7.91,0,0,0-4.18,1,3.09,3.09,0,0,0-1.63,2.78,3.62,3.62,0,0,0,1,2.77,4,4,0,0,0,2.86,1q5.06,0,8.08-5.5Z" transform="translate(-16 -76)" style="fill:#d03039"/><path d="M138.53,131.71v11.55c0,.7.5,1.05,1.49,1.05h2.14a1.21,1.21,0,0,1,.91.38,1.33,1.33,0,0,1,.36.94,1.22,1.22,0,0,1-1.27,1.26H140q-4.46,0-4.46-3.57V131.71q0-3.41-3.19-3.41-4.29,0-7.09,4.79v13.09a1.15,1.15,0,0,1-.44.91,1.66,1.66,0,0,1-1,.35,1.63,1.63,0,0,1-1-.35,1.12,1.12,0,0,1-.44-.91V131.71c0-2.27-1.07-3.41-3.19-3.41a6.7,6.7,0,0,0-4.15,1.27,12.71,12.71,0,0,0-3.22,4v12.65a1.15,1.15,0,0,1-.44.91,1.66,1.66,0,0,1-1,.35,1.63,1.63,0,0,1-1-.35,1.12,1.12,0,0,1-.44-.91V130a.93.93,0,0,0-1-1h-2.58a1.23,1.23,0,0,1-1.27-1.27,1.32,1.32,0,0,1,.36-.93,1.18,1.18,0,0,1,.91-.39h3q3.41,0,3.41,3.74a13,13,0,0,1,3.44-3.24,7.93,7.93,0,0,1,4.2-1q4.74,0,5.83,4a12.91,12.91,0,0,1,3.36-3,8.41,8.41,0,0,1,4.29-1,6,6,0,0,1,4.23,1.52A5.68,5.68,0,0,1,138.53,131.71Z" transform="translate(-16 -76)" style="fill:#d03039"/><path d="M146,144.75v-4.46a1.13,1.13,0,0,1,.44-.9,1.61,1.61,0,0,1,1.05-.36,1.59,1.59,0,0,1,1,.36,1.1,1.1,0,0,1,.44.9V144a17.21,17.21,0,0,0,5.5.88q6.27,0,6.27-3.52,0-2.64-5.88-3.9l-1.21-.28-1.54-.35a19,19,0,0,1-2-.66,6.37,6.37,0,0,1-2-1.08,4.71,4.71,0,0,1-1.65-3.65,4.56,4.56,0,0,1,1.46-3.52,7,7,0,0,1,3.22-1.76,16.52,16.52,0,0,1,3.85-.42,16.84,16.84,0,0,1,7.09,1.49c.66.29,1,.7,1,1.21v4.23a1.1,1.1,0,0,1-.44.91,1.59,1.59,0,0,1-1,.36,1.61,1.61,0,0,1-1.05-.36,1.13,1.13,0,0,1-.44-.91v-3.52a13.81,13.81,0,0,0-5.11-.88c-3.74,0-5.61,1.07-5.61,3.19a1.72,1.72,0,0,0,.74,1.6c.5.29.86.51,1.1.66a4.88,4.88,0,0,0,1.29.44q1.32.33,2.7.6c.91.19,1.67.35,2.25.5a19.72,19.72,0,0,1,2.23.74,7.44,7.44,0,0,1,2.12,1.18,4.92,4.92,0,0,1,1.92,4,5,5,0,0,1-1.62,3.93,7.66,7.66,0,0,1-3.52,1.87,19,19,0,0,1-4.1.41A17.83,17.83,0,0,1,147,146,1.38,1.38,0,0,1,146,144.75Z" transform="translate(-16 -76)" style="fill:#d03039"/><path d="M172.8,146.18a1.15,1.15,0,0,1-.44.91,1.68,1.68,0,0,1-1.05.35,1.63,1.63,0,0,1-1-.35,1.12,1.12,0,0,1-.44-.91V108.23H166.2a1.23,1.23,0,0,1-1.27-1.27,1.32,1.32,0,0,1,.36-.93,1.18,1.18,0,0,1,.91-.39h5.17a1.48,1.48,0,0,1,1,.39,1.21,1.21,0,0,1,.44.93v23q3.4-4.35,8.08-4.35a7.35,7.35,0,0,1,4.92,1.57,5.43,5.43,0,0,1,1.85,4.37v11.72c0,.66.49,1,1.48,1h2.15a1.18,1.18,0,0,1,.9.38,1.33,1.33,0,0,1,.36.94,1.23,1.23,0,0,1-.36.91,1.2,1.2,0,0,1-.9.35h-2.15q-4.45,0-4.45-3.57V131.6q0-3.4-3.8-3.41-5.06,0-8.08,5.39Z" transform="translate(-16 -76)" style="fill:#d03039"/><path d="M211.74,141.61a1.07,1.07,0,0,1,.88-.66,2.27,2.27,0,0,1,1,.25,1.32,1.32,0,0,1,.68.77,1,1,0,0,1-.08,1q-2.81,4.51-8.91,4.51a9.72,9.72,0,0,1-7.62-3.1,11.33,11.33,0,0,1-2.77-7.84,10.74,10.74,0,0,1,2.86-7.73,9.9,9.9,0,0,1,7.53-3q4.68,0,7,2.81a11.5,11.5,0,0,1,2.28,7.48c0,.84-.48,1.26-1.43,1.26l-15.23.06a8.31,8.31,0,0,0,2.22,5.47,6.91,6.91,0,0,0,5.2,2.06A7.17,7.17,0,0,0,211.74,141.61Zm-1.85-11.55a5.72,5.72,0,0,0-4.51-1.76,7.08,7.08,0,0,0-4.92,1.79,7.89,7.89,0,0,0-2.47,4.7h13.64A7.5,7.5,0,0,0,209.89,130.06Z" transform="translate(-16 -76)" style="fill:#d03039"/><path d="M225.21,144.31h2.15a1.2,1.2,0,0,1,.9.38,1.33,1.33,0,0,1,.36.94,1.23,1.23,0,0,1-.36.91,1.21,1.21,0,0,1-.9.35h-2.15q-4.46,0-4.45-3.57V108.23h-3.63a1.23,1.23,0,0,1-1.27-1.27,1.32,1.32,0,0,1,.36-.93,1.18,1.18,0,0,1,.91-.39h5.11a1.55,1.55,0,0,1,1,.39,1.21,1.21,0,0,1,.44.93v36.3C223.73,144,224.22,144.31,225.21,144.31Z" transform="translate(-16 -76)" style="fill:#d03039"/><path d="M237.64,144.31h2.15a1.2,1.2,0,0,1,.9.38,1.33,1.33,0,0,1,.36.94,1.23,1.23,0,0,1-.36.91,1.21,1.21,0,0,1-.9.35h-2.15q-4.45,0-4.45-3.57V108.23h-3.63a1.23,1.23,0,0,1-1.27-1.27,1.32,1.32,0,0,1,.36-.93,1.18,1.18,0,0,1,.91-.39h5.11a1.55,1.55,0,0,1,1.05.39,1.21,1.21,0,0,1,.44.93v36.3C236.16,144,236.65,144.31,237.64,144.31Z" transform="translate(-16 -76)" style="fill:#d03039"/><line x1="128" y1="101" x2="128" y2="77" style="fill:none;stroke:#f7931e;stroke-miterlimit:10;stroke-width:2px"/><line x1="128" y1="24" x2="128" style="fill:none;stroke:#f7931e;stroke-miterlimit:10;stroke-width:2px"/><line x1="128" y1="1" x2="1" y2="1" style="fill:none;stroke:#f7931e;stroke-miterlimit:10;stroke-width:2px"/><line x1="128" y1="100" x2="1" y2="100" style="fill:none;stroke:#f7931e;stroke-miterlimit:10;stroke-width:2px"/><line x1="1" x2="1" y2="101" style="fill:none;stroke:#f7931e;stroke-miterlimit:10;stroke-width:2px"/></svg>